<?xml version="1.0" encoding="UTF-8"?> <svg xmlns="http://www.w3.org/2000/svg" width="131" height="40" fill="none"><path d="M108.766 22.234H92.541v5.408h16.225v-5.408z" fill="#3D3D3D"></path><path d="M122.287 10.816h-2.104V8.713c0-4.807-3.905-8.713-8.713-8.713H84.429c-3.455 0-6.385 2.028-7.812 4.807l-3.005 6.01-3.004-6.085A8.75 8.75 0 0062.796 0c-3.455 0-6.385 2.028-7.812 4.807l-3.005 6.01-3.004-6.085A8.75 8.75 0 0041.163 0H19.53c-4.808 0-8.714 3.906-8.714 8.713v2.104H8.713C3.906 10.816 0 14.721 0 19.53c0 4.807 3.906 8.713 8.713 8.713h2.104v2.103c0 4.808 3.905 8.714 8.713 8.714 4.807 0 8.713-3.906 8.713-8.714v-2.103h7.512c1.727 0 3.38-.526 4.732-1.427l3.68 7.436a8.68 8.68 0 007.812 4.808 8.68 8.68 0 007.812-4.808l3.005-6.084 3.005 6.084a8.68 8.68 0 007.811 4.808 8.68 8.68 0 007.812-4.808l.3-.676a8.699 8.699 0 008.113 5.484h21.633c4.808 0 8.713-3.906 8.713-8.714v-2.103h2.104c4.807 0 8.713-3.906 8.713-8.713 0-4.808-3.906-8.714-8.713-8.714zm0 11.418h-8.113v8.112a2.693 2.693 0 01-2.704 2.704H89.837a2.693 2.693 0 01-2.704-2.704V19.53a2.693 2.693 0 012.704-2.704h18.929v-5.409H86.081L76.016 31.548a2.676 2.676 0 01-2.404 1.503 2.676 2.676 0 01-2.403-1.503l-8.413-16.75-8.413 16.75a2.676 2.676 0 01-2.404 1.503 2.676 2.676 0 01-2.403-1.503L39.51 11.418H22.234v5.408h13.52a2.693 2.693 0 012.705 2.704 2.693 2.693 0 01-2.704 2.704H22.234v8.112a2.693 2.693 0 01-2.704 2.704 2.693 2.693 0 01-2.704-2.704v-8.112H8.713A2.693 2.693 0 016.01 19.53a2.693 2.693 0 012.704-2.704h8.113V8.713A2.693 2.693 0 0119.53 6.01h21.633c1.052 0 1.953.601 2.404 1.502l8.412 16.826 8.413-16.826a2.676 2.676 0 012.404-1.502c1.051 0 1.953.601 2.404 1.502l8.412 16.826 8.413-16.826A2.676 2.676 0 0184.43 6.01h27.041a2.693 2.693 0 012.704 2.704v8.113h8.113a2.693 2.693 0 012.704 2.704 2.693 2.693 0 01-2.704 2.704z" fill="#3D3D3D"></path></svg> 