<?xml version="1.0" encoding="UTF-8"?> <svg xmlns="http://www.w3.org/2000/svg" width="112" height="89" fill="none"><g clip-path="url(#clip0)" fill="#3D3D3D"><path d="M4.582 77.297c-1.011 0-1.854.34-2.444 1.019-.59.678-.927 1.612-.927 2.8 0 1.187.337 2.12.843 2.8.59.678 1.349 1.017 2.444 1.017.674 0 1.348-.17 2.191-.424v1.018a6.52 6.52 0 01-2.36.424c-1.348 0-2.443-.424-3.202-1.187-.758-.849-1.18-2.036-1.18-3.564 0-1.018.169-1.866.506-2.545.421-.679.927-1.273 1.517-1.697.59-.424 1.432-.594 2.444-.594 1.011 0 1.854.17 2.612.51l-.421.933c-.59-.255-1.264-.51-2.023-.51zm9.439 6.024c0 .849-.337 1.442-.927 1.951-.59.425-1.348.68-2.443.68-1.18 0-1.939-.17-2.613-.425v-1.103c.421.17.843.34 1.18.424.337.085.927.17 1.348.17.759 0 1.264-.17 1.601-.424.422-.34.506-.679.506-1.188 0-.34-.084-.594-.253-.764-.168-.254-.421-.424-.674-.593-.337-.17-.758-.425-1.348-.594-.843-.34-1.517-.68-1.854-1.188-.422-.424-.506-1.018-.506-1.697s.337-1.273.843-1.782c.505-.509 1.264-.594 2.107-.594.927 0 1.77.17 2.612.51l-.337.933c-.758-.34-1.517-.425-2.275-.425-.59 0-1.012.17-1.349.425-.337.254-.421.594-.421 1.103 0 .339.084.594.168.763.169.255.338.424.59.51.337.169.675.423 1.264.593 1.012.424 1.686.764 2.023 1.188.674.424.758.933.758 1.527zm7.248 0c0 .849-.337 1.442-.927 1.951-.59.425-1.349.68-2.444.68-1.18 0-1.939-.17-2.613-.425v-1.103c.421.17.843.34 1.18.424.337.085.927.17 1.348.17.759 0 1.265-.17 1.602-.424.42-.34.505-.679.505-1.188 0-.34-.084-.594-.253-.764-.168-.254-.421-.424-.674-.593-.337-.17-.758-.425-1.348-.594-.843-.34-1.517-.68-1.854-1.188-.422-.424-.506-1.018-.506-1.697s.337-1.273.843-1.782c.506-.509 1.264-.594 2.107-.594.927 0 1.77.17 2.612.51l-.337.933c-.758-.34-1.517-.425-2.275-.425-.59 0-1.011.17-1.349.425-.337.254-.421.594-.421 1.103 0 .339.084.594.169.763.168.255.337.424.59.51.337.169.674.423 1.264.593 1.01.424 1.685.764 2.022 1.188.506.424.759.933.759 1.527zm9.523-2.375c0 1.527-.422 2.715-1.264 3.563-.843.849-2.023 1.273-3.624 1.273H22.87v-9.333h3.203c1.517 0 2.696.424 3.455 1.188.758.764 1.264 1.867 1.264 3.309zm-2.613.085c0-.849-.168-1.527-.505-1.952-.337-.424-.843-.594-1.517-.594h-.759v5.26h.506c.758 0 1.264-.254 1.686-.678.42-.424.59-1.103.59-2.036zm7.585 5.005c-1.18 0-2.107-.339-2.781-1.018-.674-.594-1.011-1.527-1.011-2.715s.337-2.12.927-2.8c.59-.678 1.517-1.018 2.697-1.018 1.095 0 1.938.34 2.528.849.59.509.927 1.357.927 2.46v1.188h-4.467c0 .424.169.679.421 1.018.338.255.675.424 1.18.424a4.93 4.93 0 001.18-.17c.422-.084.759-.254 1.18-.424v1.867c-.421.254-.758.34-1.18.424-.505-.17-1.011-.085-1.601-.085zm-.169-5.854c-.337 0-.505.085-.758.34-.253.17-.337.424-.421.848h2.107c0-.424-.085-.594-.338-.848 0-.255-.168-.34-.59-.34zM45.96 83.66c0 .764-.252 1.358-.758 1.783-.506.424-1.264.594-2.275.594-.506 0-1.012 0-1.349-.085-.337-.085-.843-.17-1.18-.34v-1.951c.422.17.843.34 1.264.424.422.085.843.17 1.18.17.506 0 .843-.17.843-.424 0-.17-.084-.255-.253-.34-.168-.085-.59-.34-1.264-.594-.674-.34-1.18-.594-1.348-.933-.253-.424-.422-.764-.422-1.273 0-.678.253-1.187.759-1.612.506-.424 1.18-.509 2.191-.509.421 0 .927.085 1.348.17.422.085.843.255 1.265.424l-.675 1.612c-.337-.17-.674-.34-1.095-.424-.422-.085-.674-.17-.927-.17-.422 0-.59.085-.59.34 0 .17.084.254.253.34.168.084.505.254 1.18.508.505.255.926.424 1.18.594.252.255.42.424.505.679.084.254.169.594.169 1.018zm1.35-6.872c0-.424.084-.678.337-.848.253-.17.505-.34 1.011-.34.421 0 .843.085 1.011.34.253.17.337.424.337.848 0 .764-.421 1.103-1.348 1.103s-1.348-.339-1.348-1.103zm2.528 9.079H47.31V78.57h2.528v7.297zm8.595-7.297v1.188l-1.011.424c.169.255.253.51.253.849 0 .763-.337 1.357-.843 1.866-.506.51-1.433.594-2.444.594-.337 0-.421 0-.59-.085-.084.085-.084.255-.084.34 0 .17.084.254.337.34.253.084.421.084.758.084h1.18c1.602 0 2.444.679 2.444 2.036 0 .933-.421 1.612-1.18 2.036-.758.425-1.854.764-3.202.764-1.011 0-1.854-.17-2.36-.51-.505-.338-.842-.847-.842-1.441 0-.849.505-1.443 1.6-1.697-.252-.085-.42-.255-.59-.425-.168-.254-.252-.424-.252-.593 0-.255.084-.425.169-.594.168-.17.421-.424.758-.594-.421-.17-.674-.424-.927-.764-.253-.424-.337-.763-.337-1.272 0-.764.337-1.358.843-1.867.505-.424 1.264-.679 2.275-.679.169 0 .422 0 .674.085.337 0 .506.085.675.085h2.696v-.17zm-5.477 8.23c0 .255.084.424.337.51.252.169.505.169.927.169.59 0 1.095-.085 1.432-.255.422-.17.506-.424.506-.594 0-.254-.084-.339-.337-.424a2.734 2.734 0 00-1.011-.17h-1.012c-.337 0-.421.085-.674.17-.084.17-.169.34-.169.594zm.758-5.854c0 .764.253 1.188.758 1.188.253 0 .422-.085.506-.34.169-.17.253-.424.253-.848 0-.764-.253-1.188-.759-1.188-.505.085-.758.424-.758 1.188zm10.282 4.921v-3.988c0-.424-.085-.848-.253-1.103-.169-.254-.422-.424-.674-.424-.422 0-.759.17-.927.509-.169.34-.337.933-.337 1.782v3.224h-2.529V78.57h1.939l.337.934h.168c.253-.34.506-.594.927-.764a3.36 3.36 0 011.264-.255c.843 0 1.433.255 1.939.68.421.423.674 1.187.674 1.95v4.921h-2.528v-.17zm10.534 0l-1.18-2.97h-3.708l-1.18 2.97h-1.096l3.708-9.418h.927l3.624 9.418H74.53zm-1.517-3.988l-1.096-2.885c-.168-.424-.337-.848-.421-1.357-.085.424-.253.848-.422 1.358l-1.095 2.884h3.034zm9.439 3.988l-1.264-4.157a15.535 15.535 0 01-.422-1.697h-.084c-.169.763-.337 1.272-.422 1.781l-1.348 4.158h-1.18l-1.938-7.042h1.18c.421 1.781.758 3.139 1.095 4.072.253.933.422 1.527.422 1.867h.084c.084-.255.168-.51.253-.934.084-.424.253-.678.337-.933l1.264-4.072h1.011l1.18 4.072c.253.764.421 1.358.421 1.867h.085c0-.17.084-.425.168-.68.085-.338.506-2.035 1.264-5.174h1.096l-1.938 7.041-1.264-.17zm8.764 0l-.253-1.019h-.084c-.422.425-.674.764-1.096.934-.421.17-.758.254-1.264.254-.674 0-1.18-.17-1.601-.509-.421-.424-.59-.848-.59-1.527 0-1.442 1.18-2.121 3.455-2.206l1.18-.085v-.424c0-.509-.168-1.018-.421-1.188-.253-.254-.59-.424-1.18-.424s-1.18.17-1.938.51l-.337-.85c.421-.169.674-.339 1.18-.424.42-.084.842-.17 1.18-.17.842 0 1.432.17 1.853.51.422.424.59 1.018.59 1.782v4.835h-.674zm-2.444-.764c.674 0 1.18-.17 1.517-.51.421-.423.506-.847.506-1.526v-.594l-1.096.085c-.843 0-1.433.17-1.854.424-.421.254-.506.594-.506 1.103 0 .424.169.679.422.848.337.085.674.17 1.011.17zm8.595-6.448c.337 0 .59 0 .843.085l-.168 1.018c-.338-.085-.506-.085-.759-.085-.505 0-1.095.254-1.433.679-.42.424-.59 1.103-.59 1.781v3.733h-1.095v-7.041h.843l.168 1.272h.085c.252-.424.59-.848.927-1.103.337-.17.674-.34 1.18-.34zm6.911 6.278c-.505.679-1.264 1.103-2.275 1.103-.927 0-1.601-.34-2.107-.933-.505-.594-.758-1.527-.758-2.715s.252-2.036.758-2.715c.506-.679 1.18-1.018 2.107-1.018a2.67 2.67 0 012.191 1.103h.084l-.084-.51v-3.393h1.096v10.011h-.843l-.169-.933zm-2.106.17c.758 0 1.179-.255 1.601-.594.337-.424.421-1.103.421-1.951v-.255c0-1.018-.168-1.697-.506-2.121-.337-.424-.842-.594-1.601-.594-.59 0-1.095.255-1.432.764-.337.424-.506 1.187-.506 2.036 0 .933.169 1.612.421 2.036.422.424.843.679 1.602.679zm9.86-1.188c0 .679-.253 1.188-.759 1.527-.421.425-1.18.51-2.022.51-.927 0-1.686-.17-2.191-.425V84.51c.337.17.674.34 1.095.424.421.085.759.17 1.18.17.506 0 1.011-.085 1.264-.255.253-.17.421-.424.421-.848 0-.34-.168-.51-.421-.679-.253-.254-.674-.424-1.348-.678-.675-.255-1.18-.425-1.349-.594-.337-.17-.421-.425-.59-.594a1.443 1.443 0 01-.252-.849c0-.509.252-1.018.674-1.357.421-.424 1.095-.51 1.938-.51.759 0 1.517.17 2.191.425l-.421.848c-.674-.339-1.349-.424-1.938-.424-.506 0-.928.085-1.18.255-.253.17-.422.424-.422.678 0 .17.085.425.169.425.084.17.253.254.421.424.253.17.59.34 1.18.509.843.34 1.348.594 1.686.933.505.255.674.679.674 1.103zM64.723 43.864l-22.08-21.975L64.723 0h-22.08L20.648 21.89l11.04 11.114 10.955 10.86 11.04 10.86 11.04-10.86z"></path><path d="M80.398 33.004l-11.04-11.115-11.04-10.775L47.531 21.89l21.827 21.975-22.08 21.889h22.08l11.04-10.775 10.956-11.114-10.956-10.86z"></path></g><defs><clipPath id="clip0"><path fill="#fff" d="M0 0h112v89H0z"></path></clipPath></defs></svg> 