<?xml version="1.0" encoding="UTF-8"?> <svg xmlns="http://www.w3.org/2000/svg" width="83" height="83" fill="none"><path d="M34.147 39.01c1.722-.866 3.025-1.831 3.917-2.874 1.587-1.878 2.37-4.368 2.37-7.455 0-3.004-.783-5.572-2.35-7.725-2.614-3.507-7.04-5.302-13.296-5.396H0v50.598h23.112c2.605 0 5.017-.223 7.248-.68 2.23-.461 4.16-1.307 5.795-2.541a14.03 14.03 0 003.631-3.98c1.526-2.376 2.288-5.068 2.288-8.067 0-2.905-.67-5.38-1.997-7.413-1.344-2.034-3.315-3.523-5.93-4.467zM10.225 24.349H21.39c2.454 0 4.477.264 6.064.788 1.837.763 2.755 2.314 2.755 4.68 0 2.122-.7 3.606-2.085 4.44-1.396.836-3.206 1.256-5.427 1.256H10.225V24.35zm17.655 32.14c-1.235.596-2.973.891-5.198.891H10.225V43.887h12.628c2.2.015 3.912.306 5.136.85 2.179.986 3.263 2.791 3.263 5.432 0 3.113-1.12 5.209-3.372 6.32zM75.022 17.92H53.041v6.299h21.981v-6.298zm7.637 24.857c-.457-2.931-1.463-5.51-3.03-7.736-1.717-2.52-3.896-4.368-6.547-5.535-2.64-1.172-5.614-1.759-8.923-1.753-5.557 0-10.07 1.737-13.562 5.187-3.48 3.46-5.224 8.436-5.224 14.92 0 6.916 1.925 11.912 5.795 14.978 3.855 3.072 8.306 4.602 13.359 4.602 6.116 0 10.874-1.82 14.272-5.452 2.174-2.294 3.403-4.55 3.673-6.766H72.345c-.586 1.095-1.266 1.951-2.044 2.574-1.411 1.141-3.248 1.712-5.5 1.712-2.142 0-3.958-.472-5.472-1.411-2.501-1.505-3.808-4.14-3.974-7.891H82.99c.041-3.232-.063-5.717-.332-7.43zm-27.055.97c.363-2.433 1.245-4.363 2.645-5.79 1.401-1.421 3.383-2.137 5.92-2.142 2.34 0 4.296.669 5.888 2.012 1.572 1.355 2.46 3.32 2.64 5.92H55.605z" fill="#3D3D3D"></path></svg> 