<svg width="220" height="220" viewBox="0 0 220 220" fill="none" xmlns="http://www.w3.org/2000/svg">
<path d="M110 220C139.174 220 167.153 208.411 187.782 187.782C208.411 167.153 220 139.174 220 110C220 80.8262 208.411 52.8473 187.782 32.2183C167.153 11.5893 139.174 8.721e-07 110 -4.80825e-06L110 110L110 220Z" fill="white"/>
<mask id="path-2-inside-1_148_1506" fill="white">
<path d="M110 220C80.8262 220 52.8473 208.411 32.2183 187.782C11.5893 167.153 8.28604e-06 139.174 4.80825e-06 110C1.33046e-06 80.8262 11.5892 52.8473 32.2182 32.2183C52.8472 11.5893 80.8262 8.721e-07 110 -4.80825e-06L110 110L110 220Z"/>
</mask>
<path d="M110 220C80.8262 220 52.8473 208.411 32.2183 187.782C11.5893 167.153 8.28604e-06 139.174 4.80825e-06 110C1.33046e-06 80.8262 11.5892 52.8473 32.2182 32.2183C52.8472 11.5893 80.8262 8.721e-07 110 -4.80825e-06L110 110L110 220Z" stroke="white" stroke-width="2" mask="url(#path-2-inside-1_148_1506)"/>
<path d="M108.095 2.52702C122.327 2.2071 136.479 4.73006 149.723 9.94813C162.967 15.1662 175.037 22.9745 185.225 32.9157C195.414 42.8569 203.516 54.7311 209.058 67.843C214.6 80.9548 217.47 95.0407 217.5 109.276C217.53 123.51 214.719 137.608 209.232 150.743C203.745 163.878 195.692 175.786 185.546 185.77C175.399 195.754 163.362 203.613 150.14 208.886C136.918 214.16 122.777 216.742 108.544 216.482" stroke="black"/>
<path d="M109 118C107.949 118 106.909 117.793 105.939 117.391C104.968 116.989 104.086 116.4 103.343 115.657C102.6 114.914 102.011 114.032 101.609 113.061C101.207 112.091 101 111.051 101 110C101 108.949 101.207 107.909 101.609 106.939C102.011 105.968 102.6 105.086 103.343 104.343C104.086 103.6 104.968 103.011 105.939 102.609C106.909 102.207 107.949 102 109 102L109 110L109 118Z" fill="white"/>
<path d="M109 118C110.051 118 111.091 117.793 112.061 117.391C113.032 116.989 113.914 116.4 114.657 115.657C115.4 114.914 115.989 114.032 116.391 113.061C116.793 112.091 117 111.051 117 110C117 108.949 116.793 107.909 116.391 106.939C115.989 105.968 115.4 105.086 114.657 104.343C113.914 103.6 113.032 103.011 112.061 102.609C111.091 102.207 110.051 102 109 102L109 110L109 118Z" fill="#0C0C0C"/>
<rect x="122" y="100" width="30" height="20" fill="#0C0C0C"/>
<rect x="66" y="100" width="30" height="20" fill="white"/>
</svg>
