<?xml version="1.0" encoding="UTF-8"?> <svg xmlns="http://www.w3.org/2000/svg" width="82" height="82" viewBox="0 0 82 82" fill="none"><mask id="mask0_3735_230" style="mask-type:alpha" maskUnits="userSpaceOnUse" x="0" y="0" width="82" height="82"><mask id="mask1_3735_230" style="mask-type:luminance" maskUnits="userSpaceOnUse" x="45" y="52" width="31" height="27"><path d="M57.0053 73.0497C56.3433 72.8512 55.8468 72.5202 55.4827 72.0237C55.1187 71.5272 54.9201 70.9314 54.9201 70.2033C54.9201 69.4751 55.1187 68.7139 55.4827 67.9195C55.8468 67.1251 56.3433 66.3308 56.9722 65.6026C57.601 64.8414 58.3623 64.1463 59.1898 63.4843C60.0172 62.8555 60.944 62.2928 61.9038 61.8294C62.8637 61.3991 63.7904 61.1012 64.651 60.9688C65.5115 60.8365 66.2728 60.8695 66.9348 61.035C67.5967 61.2005 68.1594 61.5315 68.5235 61.9618C68.9207 62.4252 69.1523 63.0209 69.1854 63.716C69.2185 64.4442 69.0531 65.2385 68.7221 66.0329C68.3911 66.8273 67.8615 67.6547 67.2326 68.4491C66.6038 69.2434 65.8094 69.9716 64.9489 70.6667C64.0883 71.3286 63.1285 71.9244 62.1355 72.3547C61.1426 72.8181 60.1827 73.0828 59.289 73.1821C58.9912 73.2152 58.6933 73.2483 58.3954 73.2483C57.8989 73.2483 57.4355 73.1821 57.0053 73.0497ZM68.3911 52.3633C67.5967 52.3633 66.7693 52.4295 65.8756 52.595C64.1214 52.8929 62.2348 53.4886 60.2489 54.4154C58.263 55.3421 56.4095 56.5006 54.7215 57.7914C53.0335 59.1153 51.4778 60.5717 50.187 62.0942C48.8962 63.6167 47.8039 65.2385 47.0427 66.8603C46.2814 68.4822 45.818 70.0709 45.7518 71.5934C45.6856 73.1159 46.0497 74.4068 46.7448 75.4328C47.4398 76.4589 48.499 77.2201 49.8229 77.6504C51.1469 78.1138 52.7687 78.2131 54.5891 78.0145C56.4095 77.7828 58.3623 76.7237 60.4806 75.7969C62.632 74.837 64.2538 73.48 66.1404 72.0568C67.9939 70.6336 69.6157 69.111 70.9728 67.423C72.3298 65.735 73.6868 64.4773 74.5143 62.8224C75.5072 60.8365 75.9706 59.3801 75.8382 57.8907C75.7389 56.4013 74.9446 55.2428 74.1171 54.3161C73.2896 53.4224 72.0319 52.9259 70.6418 52.6281C69.9467 52.4626 69.2186 52.3964 68.4242 52.3964C68.4242 52.3633 68.3911 52.3633 68.3911 52.3633Z" fill="white"></path></mask><g mask="url(#mask1_3735_230)"><path d="M75.9706 52.3633H45.7188V78.2131H75.9706V52.3633Z" fill="url(#paint0_radial_3735_230)"></path></g><mask id="mask2_3735_230" style="mask-type:luminance" maskUnits="userSpaceOnUse" x="2" y="2" width="29" height="32"><path d="M2.42773 33.0039C2.42773 32.9378 2.42773 32.8385 2.42773 32.7723V33.0039ZM26.1592 3.21544C24.1733 4.1422 23.1142 4.70487 21.2607 5.86331C15.7333 9.30554 12.4234 11.1259 8.38544 16.0907C6.76362 18.0766 5.80376 19.235 4.67842 21.5519C4.11575 22.7104 3.45378 24.597 3.45378 24.597L3.1559 26.7153L2.72562 29.5948L2.49393 32.1765L2.46083 32.8385C2.46083 32.673 2.49393 32.5406 2.49393 32.3751C2.52703 32.1434 2.52703 31.9117 2.59323 31.68C2.62632 31.4483 2.65942 31.2166 2.72562 30.9518C2.79182 30.7202 2.82491 30.4554 2.89111 30.1906C3.55308 27.642 4.67842 24.9611 6.46573 21.9822C8.45163 18.6724 9.94106 16.9843 12.6882 14.3365C15.4023 11.6886 17.2227 9.76891 20.4994 7.35273C22.4853 5.89641 27.3508 2.81826 30.2303 2.42108C30.4289 2.38798 30.4951 2.38798 30.4289 2.38798C30.131 2.32179 27.3508 2.61967 26.1592 3.21544Z" fill="white"></path></mask><g mask="url(#mask2_3735_230)"><path d="M30.4951 2.32031H2.42773V33.0025H30.4951V2.32031Z" fill="url(#paint1_linear_3735_230)"></path></g><mask id="mask3_3735_230" style="mask-type:luminance" maskUnits="userSpaceOnUse" x="0" y="0" width="62" height="58"><path d="M4.41446 57.3428L4.21587 57.0118C4.28206 57.1442 4.34826 57.2435 4.41446 57.3428ZM61.476 8.09246C61.3436 7.92697 61.1781 7.76148 61.0126 7.62908L61.476 8.09246ZM41.8487 0.546038C39.6973 1.00941 38.2741 1.50589 35.8579 2.53194C33.4417 3.55799 30.9262 4.84882 28.3115 6.47064C24.7037 8.68823 21.2284 11.2699 18.051 14.0502C14.8735 16.8304 11.9278 19.8424 9.37921 22.9205C6.79754 26.0318 4.61305 29.2423 2.95813 32.3535C1.27011 35.531 0.54195 38.6753 0.0454749 41.5549C-0.0538201 42.1176 0.0454755 42.6471 0.0123771 43.1767C-0.0207212 43.7063 0.475753 47.0492 1.03843 49.4654C1.27011 50.4914 1.40251 51.0872 1.76659 52.0802C2.16377 53.2717 3.02433 55.0259 3.02433 55.0259L3.4546 55.7872L4.21587 57.0118C3.95108 56.5484 3.71939 56.0851 3.5539 55.5886C3.32221 54.9597 3.15672 54.2646 3.02433 53.5365C2.92503 52.8083 2.85883 52.0471 2.85883 51.2527C2.85883 50.4583 2.92503 49.5978 3.05742 48.7041C3.5208 45.5929 4.71234 42.2499 6.46655 38.8408C8.18767 35.4979 10.4715 32.1219 13.1524 28.8451C15.8003 25.6015 18.8453 22.424 22.1883 19.5114C25.4981 16.5987 29.1389 13.8847 32.9452 11.6009C36.0234 9.74738 39.0022 8.25795 41.8487 7.16571C44.6951 6.07346 47.3761 5.3453 49.8585 5.01431C52.3739 4.68333 54.6246 4.74953 56.5774 5.246C58.3317 5.67628 59.8211 6.47064 60.9795 7.59599L59.3246 5.87487L57.107 3.88897L55.9817 2.99532L53.4331 1.96927C52.043 1.53899 50.355 0.91012 48.5014 0.645334C47.3761 0.479842 45.8205 0.28125 44.2649 0.28125C43.4374 0.314348 42.6099 0.380546 41.8487 0.546038Z" fill="white"></path></mask><g mask="url(#mask3_3735_230)"><path d="M61.4753 0.3125H0.0117188V57.3409H61.4753V0.3125Z" fill="url(#paint2_radial_3735_230)"></path></g><mask id="mask4_3735_230" style="mask-type:luminance" maskUnits="userSpaceOnUse" x="6" y="8" width="70" height="66"><path d="M21.9857 73.4864L21.059 73.1555C21.3568 73.2879 21.6547 73.3871 21.9857 73.4864ZM56.077 8.97778C53.1643 9.27567 49.9869 10.1031 46.6109 11.4271C43.301 12.751 39.7926 14.5714 36.1849 16.9214C32.18 19.5031 28.4399 22.515 25.0308 25.7586C21.6216 28.9692 18.5435 32.4776 15.9287 36.0191C13.2809 39.5937 11.0964 43.2677 9.54074 46.8423C7.91892 50.4831 6.95907 54.0577 6.76048 57.3345C6.69428 58.5922 6.72738 59.7175 6.89287 60.8098C7.05837 61.902 7.32315 62.895 7.68723 63.7886C8.05131 64.7154 8.54779 65.5428 9.14356 66.271C9.73933 66.9992 10.4344 67.6611 11.2288 68.1907L13.9428 69.9118L16.5245 71.302L19.404 72.5597L21.059 73.1555C20.1984 72.7914 19.404 72.3611 18.6759 71.8315C17.716 71.1365 16.9217 70.2759 16.2928 69.283C15.6639 68.29 15.2006 67.1647 14.8696 65.9069C14.5717 64.6492 14.4393 63.2922 14.4724 61.7696C14.5717 58.6915 15.3991 55.3155 16.8224 51.9063C18.2456 48.5303 20.2315 45.0881 22.6808 41.7451C25.097 38.4353 27.9434 35.1586 31.0878 32.1797C34.2652 29.1678 37.7736 26.3875 41.5137 24.0044C45.2538 21.6213 48.8947 19.834 52.3369 18.6425C55.8122 17.4179 60.3798 16.5573 63.2924 16.5573C66.2382 16.5904 68.8199 17.2524 70.8389 18.5763C72.891 19.9333 73.2881 22.2502 73.9832 25.0305L75.0754 24.7988L71.567 15.5974L70.6734 13.5785C69.4818 11.5595 67.4628 10.2024 65.2121 9.40806C63.8882 8.91159 61.9354 8.74609 59.9495 8.74609C58.6256 8.77919 57.2685 8.84539 56.077 8.97778Z" fill="white"></path></mask><g mask="url(#mask4_3735_230)"><path d="M75.0434 8.77734H6.69531V73.4846H75.0434V8.77734Z" fill="url(#paint3_radial_3735_230)"></path></g><mask id="mask5_3735_230" style="mask-type:luminance" maskUnits="userSpaceOnUse" x="22" y="27" width="59" height="54"><path d="M51.6435 77.3574L50.0548 77.9532C50.7498 77.7215 51.4449 77.4567 52.1731 77.1588L51.6435 77.3574ZM58.5942 29.0007C55.2512 30.1261 51.6766 31.8141 48.0027 34.0648C44.3619 36.3155 40.9858 38.9302 37.9408 41.7767C34.8957 44.6231 32.1817 47.6682 29.931 50.8125C27.6472 53.9569 25.8268 57.2005 24.536 60.3449C23.2451 63.5554 22.5501 66.6666 22.5832 69.5131C22.6163 71.3004 22.9141 72.8891 23.4768 74.2792C24.0726 75.6694 24.9 76.8609 25.9923 77.7877C27.0845 78.7475 28.3754 79.5419 29.9641 79.8729C31.5859 80.237 33.1746 80.5017 35.2598 80.601H35.6901L38.7352 80.4024L41.714 80.0384L43.2034 79.7736L45.9175 79.1778L48.5323 78.4165L49.2604 78.1849L50.0548 77.887C48.0689 78.5489 46.1823 78.9461 44.4612 79.1116C42.1443 79.3433 40.0591 79.1116 38.3049 78.5158C36.5838 77.9201 35.1936 76.894 34.2338 75.537C33.2739 74.18 32.7113 72.4588 32.612 70.4398C32.5127 68.1561 33.0091 65.6406 33.969 63.0589C34.9288 60.5103 36.3521 57.8956 38.1725 55.3801C39.9598 52.8646 42.1443 50.3822 44.5605 48.0985C47.0097 45.8147 49.7238 43.7295 52.6695 41.9422C55.6153 40.1549 58.4949 38.8309 61.2089 38.0035C63.9561 37.1429 66.5047 36.7788 68.7884 36.9112C71.0722 37.0436 73.0912 37.6394 74.6137 38.7647C76.1694 39.8901 77.2947 41.545 77.7912 43.7295C78.0229 43.0675 79.4792 42.571 79.6778 41.876C79.8764 41.1809 80.0419 40.5189 80.1743 39.8239C80.3067 39.1288 80.7369 35.3556 80.77 34.6605C80.6376 34.2634 80.6707 33.8662 80.4391 33.469C79.413 31.5162 78.3539 30.788 76.6327 29.6296C74.6799 28.3057 70.9398 27.4451 68.0603 27.3789C67.9279 27.3789 67.7955 27.3789 67.6631 27.3789C64.8828 27.3789 61.8378 27.9085 58.5942 29.0007Z" fill="white"></path></mask><g mask="url(#mask5_3735_230)"><path d="M80.7046 27.3789H22.5508V80.6672H80.7046V27.3789Z" fill="url(#paint4_radial_3735_230)"></path></g><path d="M44.3287 5.30004C43.9315 6.59088 43.0378 8.0141 41.7801 9.40423C40.4892 10.8275 38.8012 12.2838 36.8484 13.6408C34.8625 15.0309 32.6449 16.3218 30.2619 17.4471C27.8788 18.5725 25.3633 19.5323 22.8147 20.2605C20.2993 20.9556 18.0486 21.3196 16.0958 21.4189C14.1761 21.4851 12.5873 21.2865 11.3627 20.8232C10.1712 20.3598 9.37681 19.6647 9.04582 18.7049C8.71484 17.7781 8.78104 16.6528 9.37681 15.3288C9.5423 14.9317 9.77399 14.5345 10.0388 14.1373C10.3036 13.7401 10.5683 13.3098 10.8993 12.9127C11.2303 12.5155 11.5944 12.0852 11.9585 11.688C12.3557 11.2908 12.7528 10.8606 13.2162 10.4634L14.4078 9.40423C16.162 7.98101 18.0486 6.65707 20.0014 5.49863L21.0605 4.90286C21.0605 4.90286 18.9091 6.55778 17.85 7.88171C17.2542 8.64297 16.7908 9.27184 16.4929 9.93381C16.2282 10.5627 16.1951 11.1253 16.3937 11.5556C16.5922 11.9859 17.0225 12.3169 17.6183 12.5155C18.2141 12.7141 19.0415 12.8134 19.9683 12.7472C20.9281 12.681 22.0204 12.4824 23.245 12.1514C24.4696 11.7873 25.6943 11.3239 26.8527 10.7613C28.0112 10.1986 29.1034 9.56973 30.0633 8.90776C31.0231 8.24579 31.8506 7.55073 32.5125 6.85566C33.1745 6.1606 33.6379 5.46553 33.8696 4.83666C34.1013 4.20779 34.0682 3.67822 33.8034 3.24794C33.5386 2.85076 33.0752 2.55288 32.4463 2.35429C31.8175 2.1888 31.0231 2.22189 30.0964 2.38739C29.2027 2.55288 28.1105 2.65217 26.952 2.98316C26.1908 3.21484 25.7605 3.38034 25.0323 3.71132C27.2499 2.55288 28.5738 2.0233 30.99 1.26204C32.5456 0.765566 33.6048 0.50078 35.028 0.235993C36.6829 -0.0618917 38.0731 -0.0287934 39.3308 0.0705016C40.5885 0.169797 41.6808 0.434584 42.5082 0.864862C43.3357 1.29514 43.9646 1.85781 44.2625 2.58597C44.5934 3.38033 44.6265 4.27399 44.3287 5.30004Z" fill="#E50012"></path><path d="M75.4438 60.7052C75.4438 60.7052 74.8811 62.1946 74.3847 63.0883C73.9213 63.9157 73.0276 65.0742 73.0276 65.0742C73.0276 65.0742 72.7297 65.4714 72.5311 65.7362C71.9685 66.4643 71.0417 67.5235 71.0417 67.5235L69.8171 68.8805C68.5263 70.2044 67.0699 71.4622 65.4812 72.6868C63.8594 73.8783 62.1052 75.0037 60.2517 76.0297C58.3982 77.0558 56.4123 77.9494 54.3933 78.7107C52.3743 79.472 50.2891 80.1008 48.1708 80.5311C47.7405 80.6304 47.3433 80.6966 46.9461 80.7628C46.549 80.829 46.1518 80.8952 45.7546 80.9614C45.3574 81.0276 44.9602 81.0607 44.5961 81.1269C44.199 81.16 43.8349 81.1931 43.4708 81.2262L41.187 81.3255H40.6905L38.2413 81.2593L35.7589 81.0276C35.7589 81.0276 35.3286 80.9614 35.0638 80.9283C34.0378 80.7959 33.442 80.6966 32.416 80.4649C31.3568 80.2663 29.7681 79.836 29.7681 79.836L28.4442 79.3727L28.0801 79.2072C29.0068 79.5713 30.2646 79.9353 31.4561 80.1008C32.6807 80.2994 34.0047 80.3987 35.3948 80.3987C36.7849 80.4318 38.2744 80.3325 39.7969 80.2001C41.3525 80.0346 42.9412 79.7698 44.5961 79.4389C48.4025 78.6445 52.2088 77.3537 55.7834 75.7649C59.3911 74.1762 62.7671 72.2565 65.7791 70.1051C68.791 67.9868 71.4058 65.6369 73.5572 63.2207C74.2854 62.3932 74.9142 61.632 75.51 60.7052C75.4769 60.639 75.4438 60.7052 75.4438 60.7052Z" fill="#E50012"></path><path d="M53.5 2.02294L56.1809 3.01589L58.8288 4.24053L59.7555 4.737C60.4837 5.13418 61.1457 5.59756 61.6752 6.09404C62.2379 6.62361 62.6682 7.18628 62.9992 7.84825C63.3302 8.51022 63.5288 9.23838 63.6281 9.99964C63.7273 10.794 63.6611 11.6546 63.4957 12.5482C62.9992 14.9644 61.6091 17.5792 59.4577 20.1939C57.2732 22.8749 54.3274 25.589 50.819 28.1375C47.2775 30.7192 43.2064 33.1354 38.8705 35.2206C34.5015 37.3058 29.9008 39.0269 25.2671 40.2184C21.1298 41.2776 17.3897 41.8402 14.1129 41.9064C10.9024 41.9726 8.18834 41.6086 6.03694 40.8142C3.95175 40.0529 2.39613 38.8945 1.50247 37.4382C0.641917 36.0149 0.37713 34.2607 0.77431 32.2417L0.972899 31.3812L1.73416 28.5347L2.69401 25.7875L3.68696 23.4707L4.58062 21.5841L4.41513 21.9481C4.44823 21.8819 4.38203 22.0143 4.38203 22.0143C3.52147 23.9009 3.35598 25.5559 3.78626 26.9129C4.24963 28.303 5.34188 29.4284 6.9968 30.1565C8.68481 30.9178 10.9686 31.2819 13.7158 31.2488C16.496 31.2157 19.7728 30.7192 23.4467 29.7262C27.1206 28.7333 30.7945 27.3432 34.2698 25.6883C37.7452 24.0333 40.9888 22.1136 43.8352 20.0946C46.6486 18.0756 49.0648 15.9573 50.8521 13.839C52.6394 11.7539 53.8309 9.70176 54.3274 7.81515C54.5591 6.8553 54.5922 5.96164 54.4598 5.16728C54.2943 4.37292 53.9633 3.67786 53.4669 3.08209C52.9704 2.48632 52.3084 1.98984 51.5141 1.59266C50.9845 1.32788 50.3887 1.09619 49.7268 0.897598L48.7338 0.632812C49.1641 0.699009 49.3958 0.732107 49.7268 0.831402C49.7268 0.831402 50.6866 1.06309 51.3155 1.22858C52.176 1.55956 53.5 2.02294 53.5 2.02294Z" fill="#E50012"></path><path d="M71.3049 13.9742L73.2908 16.4897L75.1113 19.1706L75.9056 20.5277C76.1373 20.9579 76.369 21.3882 76.5014 21.8847C76.6669 22.3481 76.7993 22.8445 76.8986 23.341C76.9979 23.8375 77.031 24.4002 77.0641 24.9297C77.0641 25.4924 77.031 26.0551 76.9648 26.6508C76.5676 29.729 75.0451 33.0057 72.5958 36.3487C70.0803 39.7247 66.6381 43.1338 62.5008 46.3113C58.2973 49.5218 53.4318 52.5006 48.2023 55.0161C42.9397 57.5316 37.346 59.5506 31.7524 60.8745C27.7475 61.8013 24.0405 62.3309 20.6976 62.4632C17.3877 62.5956 14.442 62.3308 11.9265 61.7351C9.44414 61.1393 7.39205 60.2457 5.80333 59.0541C4.24771 57.8957 3.12236 56.4393 2.49349 54.7844L1.86463 52.964L1.00407 49.8528L0.408298 46.7084L0.275905 45.8148L0.110413 44.0606C0.342102 45.7486 1.03717 47.2049 2.19561 48.4295C3.48644 49.8197 5.37305 50.8788 7.75613 51.5739C10.1723 52.3021 13.1181 52.633 16.4941 52.5006C19.9363 52.4014 23.8088 51.8387 28.0123 50.8126C33.308 49.5218 38.5707 47.569 43.5354 45.219C48.5002 42.8359 53.134 40.0557 57.1058 37.0768C61.0445 34.098 64.3543 30.9536 66.7705 27.8424C69.1536 24.7642 70.643 21.7523 71.1063 18.9389C71.2387 18.1446 71.2718 17.4164 71.2387 16.6882C71.2056 15.9932 71.0733 15.3312 70.8747 14.7023C70.6761 14.0735 70.4113 13.5108 70.0472 12.9481C69.8486 12.6172 69.5838 12.3193 69.319 11.9883L70.974 13.7425L71.3049 13.9742Z" fill="#E50012"></path><path d="M81.1012 37.3394C81.3328 39.888 81.4321 41.3443 81.0019 43.8598C80.373 47.7323 79.347 50.0161 77.1956 53.1935C74.978 56.4041 71.8998 59.6146 68.1928 62.5604C64.4527 65.5392 60.0837 68.2864 55.3176 70.5371C50.5845 72.8209 45.5204 74.6082 40.4233 75.7004C37.7754 76.2631 35.26 76.6272 32.91 76.7927C30.56 76.9581 28.3755 76.9251 26.3896 76.7265C24.4037 76.5279 22.6164 76.1307 20.9946 75.6011C19.4059 75.0715 18.0157 74.3765 16.8573 73.549L14.408 71.6293L12.3559 69.7758C12.3559 69.7758 10.9658 68.4188 10.1383 67.4589C9.54255 66.797 8.71509 65.6716 8.71509 65.6716C9.67494 66.7639 10.8334 67.6906 12.2897 68.4519C14.0108 69.3455 16.0298 70.0406 18.3798 70.4378C20.7629 70.8681 23.4439 71.0004 26.3896 70.8681C29.3685 70.7357 32.6121 70.2723 36.0543 69.511C41.5817 68.2533 47.1092 66.3005 52.2725 63.8181C57.4359 61.3357 62.202 58.39 66.3062 55.1794C70.3442 52.002 73.7202 48.5929 76.1364 45.1506C78.5195 41.8077 79.9758 38.4317 80.3068 35.2873C80.3399 34.9564 80.373 34.6254 80.373 34.2944C80.373 33.9634 80.3399 33.6324 80.3068 33.3345C80.2737 33.0036 80.7371 34.7578 80.7371 34.7578C80.7371 34.7578 81.0019 36.3465 81.1012 37.3394Z" fill="#E50012"></path></mask><g mask="url(#mask0_3735_230)"><rect x="-64.2129" y="-39.7148" width="251.547" height="251.547" fill="#3D3D3D"></rect></g><defs><radialGradient id="paint0_radial_3735_230" cx="0" cy="0" r="1" gradientUnits="userSpaceOnUse" gradientTransform="translate(65.1704 52.3642) scale(29.5387 29.5387)"><stop stop-color="white" stop-opacity="0"></stop><stop offset="1" stop-color="#E50012"></stop></radialGradient><linearGradient id="paint1_linear_3735_230" x1="16.4702" y1="2.33558" x2="16.4702" y2="33.0072" gradientUnits="userSpaceOnUse"><stop stop-color="#E50012"></stop><stop offset="1" stop-color="white" stop-opacity="0"></stop></linearGradient><radialGradient id="paint2_radial_3735_230" cx="0" cy="0" r="1" gradientUnits="userSpaceOnUse" gradientTransform="translate(42.347 0.784077) scale(68.0733 68.0733)"><stop stop-color="white" stop-opacity="0"></stop><stop offset="1" stop-color="#E50012"></stop></radialGradient><radialGradient id="paint3_radial_3735_230" cx="0" cy="0" r="1" gradientUnits="userSpaceOnUse" gradientTransform="translate(53.7881 9.28628) scale(72.638 72.638)"><stop stop-color="white" stop-opacity="0"></stop><stop offset="1" stop-color="#E50012"></stop></radialGradient><radialGradient id="paint4_radial_3735_230" cx="0" cy="0" r="1" gradientUnits="userSpaceOnUse" gradientTransform="translate(62.631 27.8105) scale(61.9675 61.9675)"><stop stop-color="white" stop-opacity="0"></stop><stop offset="1" stop-color="#E50012"></stop></radialGradient></defs></svg> 