<?xml version="1.0" encoding="UTF-8"?> <svg xmlns="http://www.w3.org/2000/svg" width="135" height="76" viewBox="0 0 135 76" fill="none"><path d="M52.9774 62.0697H53.9544L60.3048 75.8026H59.2017L57.4684 71.9892H49.4083L47.6749 75.8026H46.6191L52.9695 62.0697H52.9774ZM57.0429 71.0674L53.458 63.1728L49.8495 71.0674H57.0429ZM59.903 62.1643H61.0297L65.3158 74.2978L69.3104 62.1249H70.0983L74.085 74.3056L78.3711 62.1643H79.4269L74.4789 75.9051H73.6595L69.6649 64.0552L65.6703 75.9051H64.843L59.903 62.1643ZM85.3676 62.0697H86.3446L92.695 75.8026H91.5919L89.8586 71.9892H81.8063L80.073 75.8026H79.0172L85.3676 62.0697V62.0697ZM89.4252 71.0674L85.8403 63.1728L82.2318 71.0674H89.4252ZM94.7041 62.1643H100.44C102.11 62.1643 103.458 62.6921 104.277 63.5037C104.942 64.1804 105.313 65.0921 105.309 66.0407V66.0801C105.309 68.365 103.615 69.665 101.314 69.9801L105.813 75.8105H104.529L100.188 70.1535H95.7205V75.8026H94.712V62.1643H94.7041ZM100.322 69.2395C102.607 69.2395 104.293 68.0892 104.293 66.1195V66.0801C104.293 64.2443 102.851 63.1018 100.377 63.1018H95.7283V69.2395H100.322V69.2395ZM108.311 62.1643H112.857C117.143 62.1643 120.106 65.1031 120.106 68.9401V68.9795C120.106 72.8244 117.143 75.8026 112.857 75.8026H108.311V62.1643ZM112.857 74.8729C116.655 74.8729 119.05 72.2729 119.05 69.0268V68.9874C119.05 65.7492 116.655 63.1018 112.857 63.1018H109.327V74.865H112.857V74.8729ZM121.997 73.8172L122.658 73.0529C124.155 74.4396 125.542 75.0857 127.543 75.0857C129.592 75.0857 131.002 73.9353 131.002 72.3753V72.3359C131.002 70.8941 130.238 70.051 127.142 69.4286C123.864 68.7668 122.54 67.6559 122.54 65.5916V65.5522C122.54 63.5273 124.392 61.9673 126.929 61.9673C128.914 61.9673 130.222 62.5188 131.601 63.6219L130.963 64.4255C129.853 63.4073 128.395 62.8544 126.889 62.8812C124.88 62.8812 123.557 64.0316 123.557 65.4576V65.497C123.557 66.9389 124.297 67.8134 127.535 68.4753C130.687 69.1213 132.011 70.248 132.011 72.2414V72.2808C132.011 74.4869 130.12 75.9996 127.496 75.9996C125.306 75.9996 123.635 75.2826 121.997 73.8172V73.8172Z" fill="#3D3D3D"></path><path d="M50.1094 20.9107H45.3506V19.9731H55.8768V20.9107H51.1179V33.6194H50.1094V20.9107ZM58.075 19.9731H59.0914V26.292H67.8212V19.9731H68.8376V33.6194H67.8212V27.2217H59.0914V33.6194H58.075V19.9731ZM72.4067 19.9731H82.1057V20.9107H73.4152V26.2684H81.2311V27.206H73.4152V32.6818H82.2081V33.6194H72.4067V19.9731Z" fill="#3D3D3D"></path><path d="M59.9029 40.4346C60.3757 42.1285 60.8484 43.8225 61.3526 45.5165C62.2193 48.5499 62.3769 49.0383 62.8654 52.0875C63.3381 48.9674 63.4484 48.4317 64.1575 45.2328L65.1818 40.4346H69.0818L65.0951 56.1766H61.0454C60.549 54.4433 60.0841 52.702 59.572 50.9766C58.729 48.085 58.6817 47.9826 58.209 45.7765C57.8633 47.5006 57.416 49.2028 56.8695 50.8741L55.3568 56.1766H51.307L47.3203 40.4425H51.2361C52.9301 47.9117 53.1113 48.7311 53.5762 52.1426C54.1592 49.0226 54.3168 48.4238 55.1362 45.3037L56.4283 40.4425H59.9029V40.4346ZM85.2809 51.9141C84.753 52.702 84.233 53.4505 83.453 54.1754C81.8889 55.5873 79.8475 56.3532 77.7408 56.3185C73.2498 56.3185 70.0903 53.4505 70.0903 48.4947C70.0903 44.8389 71.8867 40.1431 77.8589 40.1431C78.7571 40.1431 81.3651 40.2297 83.3033 42.3176C85.273 44.4371 85.3912 47.3917 85.4542 49.1014H74.6365C74.6128 50.9923 75.6844 52.8675 78.0874 52.8675C80.5299 52.8675 81.3651 51.276 81.9166 50.2044L85.2809 51.9141V51.9141ZM80.845 46.3201C80.8068 45.5326 80.5106 44.7796 80.002 44.1771C79.3943 43.609 78.5862 43.305 77.7548 43.3315C76.9234 43.3581 76.1364 43.7132 75.5662 44.3189C74.9595 44.9886 74.8098 45.6819 74.668 46.3201H80.845V46.3201ZM88.2591 40.4346H94.3416C95.9962 40.4346 97.4853 40.5055 98.4386 40.8128C99.2343 41.0321 99.934 41.5109 100.426 42.1732C100.919 42.8356 101.176 43.6434 101.157 44.4686C101.157 45.3195 100.936 45.8316 100.865 45.9813C100.156 47.5886 98.6435 47.9038 97.7926 48.0771C98.7538 48.2347 100.022 48.4317 100.889 49.4165C101.448 50.0153 101.756 50.882 101.756 51.7802C101.744 52.5997 101.491 53.3975 101.028 54.0742C100.566 54.7508 99.9146 55.2765 99.1556 55.5857C97.9738 56.0978 96.7053 56.1688 94.901 56.1688H88.2591V40.4346V40.4346ZM92.0016 43.3734V46.651H94.964C95.8544 46.6274 97.3041 46.588 97.3041 44.9571C97.3041 43.4443 95.9883 43.3813 95.2319 43.3813H92.0016V43.3734ZM92.0016 49.5032V53.3166H94.7434C96.0592 53.293 97.7689 53.2457 97.7689 51.4414C97.7689 49.5505 96.2089 49.5268 95.4053 49.5032H92.0016V49.5032ZM104.97 40.4346H111.053C112.699 40.4346 114.189 40.5055 115.15 40.8128C115.945 41.0321 116.645 41.5109 117.138 42.1732C117.63 42.8356 117.887 43.6434 117.868 44.4686C117.868 45.3195 117.647 45.8316 117.576 45.9813C116.867 47.5886 115.355 47.9038 114.504 48.0771C115.465 48.2347 116.733 48.4317 117.6 49.4165C118.152 50.0153 118.467 50.882 118.467 51.7802C118.467 53.0014 117.821 54.719 115.867 55.5857C114.685 56.0978 113.416 56.1688 111.612 56.1688H104.97V40.4346V40.4346ZM108.713 43.3734V46.651H111.675C112.566 46.6274 114.015 46.588 114.015 44.9571C114.015 43.4443 112.699 43.3813 111.943 43.3813H108.713V43.3734ZM108.713 49.5032V53.3166H111.455C112.762 53.293 114.48 53.2457 114.48 51.4414C114.48 49.5505 112.92 49.5268 112.116 49.5032H108.713V49.5032ZM118.38 40.4346H122.903L126.291 45.8316C126.488 45.3825 126.527 45.2959 126.937 44.6498L129.631 40.4346H134.106L128.158 48.7232V56.1688H124.281V48.8414L118.372 40.4346H118.38Z" fill="#3D3D3D"></path><path fill-rule="evenodd" clip-rule="evenodd" d="M0 0H39.3945V75.6375H30.8758C31.0124 75.4572 31.1162 75.2733 31.1851 75.0863L31.2403 74.976V61.1643V60.9043C31.2403 59.1349 28.1709 57.6223 23.5125 56.7528C21.9538 56.4099 20.7117 56.2209 20.5011 56.1897C21.041 56.1143 30.6412 54.7224 30.6412 51.0086C30.6412 47.5892 19.5399 46.7225 19.5399 46.7225C19.5399 46.7225 30.4915 44.9103 30.4915 41.7509C30.4915 39.2454 18.8308 37.386 18.8308 37.386C18.8308 37.386 30.2158 35.8102 30.2158 32.3829C30.2158 29.4677 19.6581 27.9155 19.6581 27.9155C19.6581 27.9155 29.9085 26.844 29.9085 23.1252C29.9085 20.2651 19.1065 18.4372 19.1065 18.4372C19.1065 18.4372 29.814 17.1214 29.814 13.8517C29.814 9.59709 15.6634 8.61223 15.6634 8.61223L13.4574 11.3462C13.4574 11.3462 23.1405 12.2286 23.1405 13.7493C23.1405 15.1231 3.8468 16.5034 0 16.7687V0ZM22.8254 51.1031C22.8254 52.9476 3.52509 54.5939 0 54.8547V48.8775C0.868229 48.9326 2.34723 48.9852 4.14855 49.0493L4.1488 49.0493H4.14888C11.0926 49.2963 22.8254 49.7137 22.8254 51.1031ZM22.8254 42.0503C22.8254 43.8578 3.68456 45.3324 0 45.5899V39.134C0.88306 39.2109 2.26716 39.3021 3.92761 39.4115L3.92873 39.4116C10.9249 39.8727 22.8254 40.6571 22.8254 42.0503ZM23.0145 32.572C23.0145 34.305 4.13216 35.5433 0 35.796V29.9675C1.58567 30.1764 4.49213 30.3459 7.71837 30.5341H7.71839C14.6321 30.9372 23.0145 31.426 23.0145 32.572ZM22.8254 23.1094C22.8254 24.897 4.78248 26.1728 0 26.4786V20.0963C0.842844 20.1733 2.19518 20.2671 3.83188 20.3807C10.7721 20.8622 22.8254 21.6985 22.8254 23.1094Z" fill="#3D3D3D"></path></svg> 